<?xml version="1.0" encoding="UTF-8" standalone="no"?>
<!-- Created with Inkscape (http://www.inkscape.org/) -->

<svg
   version="1.1"
   id="svg1"
   width="512"
   height="512"
   viewBox="0 0 512 512"
   sodipodi:docname="libro.svg"
   inkscape:version="1.4.2 (f4327f4, 2025-05-13)"
   xmlns:inkscape="http://www.inkscape.org/namespaces/inkscape"
   xmlns:sodipodi="http://sodipodi.sourceforge.net/DTD/sodipodi-0.dtd"
   xmlns:xlink="http://www.w3.org/1999/xlink"
   xmlns="http://www.w3.org/2000/svg"
   xmlns:svg="http://www.w3.org/2000/svg">
  <defs
     id="defs1">
    <linearGradient
       id="linearGradient262154"
       inkscape:collect="always">
      <stop
         style="stop-color:#da1467;stop-opacity:1;"
         offset="0"
         id="stop262154" />
      <stop
         style="stop-color:#ff962e;stop-opacity:1;"
         offset="1"
         id="stop262155" />
    </linearGradient>
    <linearGradient
       inkscape:collect="always"
       xlink:href="#linearGradient262154"
       id="linearGradient262155"
       x1="166.8615"
       y1="509.49545"
       x2="166.8615"
       y2="190.61592"
       gradientUnits="userSpaceOnUse" />
    <linearGradient
       inkscape:collect="always"
       xlink:href="#linearGradient262154"
       id="linearGradient262164"
       gradientUnits="userSpaceOnUse"
       x1="166.8615"
       y1="509.49545"
       x2="166.8615"
       y2="190.61592" />
    <linearGradient
       inkscape:collect="always"
       xlink:href="#linearGradient262154"
       id="linearGradient262165"
       gradientUnits="userSpaceOnUse"
       x1="166.8615"
       y1="509.49545"
       x2="166.8615"
       y2="190.61592" />
    <linearGradient
       inkscape:collect="always"
       xlink:href="#linearGradient262154"
       id="linearGradient262166"
       gradientUnits="userSpaceOnUse"
       x1="166.8615"
       y1="509.49545"
       x2="166.8615"
       y2="190.61592" />
    <linearGradient
       inkscape:collect="always"
       xlink:href="#linearGradient262154"
       id="linearGradient262167"
       gradientUnits="userSpaceOnUse"
       x1="166.8615"
       y1="509.49545"
       x2="166.8615"
       y2="190.61592" />
    <linearGradient
       inkscape:collect="always"
       xlink:href="#linearGradient262154"
       id="linearGradient262168"
       gradientUnits="userSpaceOnUse"
       x1="166.8615"
       y1="509.49545"
       x2="166.8615"
       y2="190.61592" />
    <clipPath
       clipPathUnits="userSpaceOnUse"
       id="clipPath3">
      <use
         x="0"
         y="0"
         xlink:href="#g2"
         id="use4" />
    </clipPath>
    <clipPath
       clipPathUnits="userSpaceOnUse"
       id="clipPath5">
      <ellipse
         style="fill:#d91366;fill-opacity:0.470588;stroke:#000000;stroke-width:0;stroke-linecap:round;stroke-linejoin:round;stroke-opacity:0.92638;paint-order:fill markers stroke"
         id="ellipse5"
         cx="248.09203"
         cy="271.75061"
         rx="159.93573"
         ry="158.6364" />
    </clipPath>
  </defs>
  <sodipodi:namedview
     id="namedview1"
     pagecolor="#ffffff"
     bordercolor="#000000"
     borderopacity="0.25"
     inkscape:showpageshadow="2"
     inkscape:pageopacity="0.0"
     inkscape:pagecheckerboard="0"
     inkscape:deskcolor="#d1d1d1"
     inkscape:zoom="0.40673829"
     inkscape:cx="-403.20768"
     inkscape:cy="126.61705"
     inkscape:window-width="1902"
     inkscape:window-height="1033"
     inkscape:window-x="477"
     inkscape:window-y="0"
     inkscape:window-maximized="0"
     inkscape:current-layer="g1" />
  <g
     inkscape:groupmode="layer"
     inkscape:label="Image"
     id="g1">
    <g
       id="g3"
       clip-path="url(#clipPath5)"
       transform="matrix(1.5915505,0,0,1.6054794,-138.97003,-181.12458)">
      <g
         inkscape:label="Clip"
         id="g2">
        <g
           id="g262149"
           transform="translate(80.72077,-77.382293)"
           style="fill:url(#linearGradient262155);fill-opacity:1">
          <path
             style="fill:url(#linearGradient262164);fill-opacity:1"
             d="m 177.97441,507.88977 c 0.44976,-0.17859 0.98714,-0.15663 1.19418,0.0488 0.20703,0.20544 -0.16096,0.35156 -0.81776,0.32471 -0.72581,-0.0297 -0.87345,-0.17616 -0.37642,-0.37352 z m 97.3125,-41.8519 c 0,-0.12839 0.49065,-0.61526 1.09033,-1.08194 0.98819,-0.76902 1.01023,-0.74715 0.23524,0.23343 -0.81394,1.02984 -1.32557,1.35734 -1.32557,0.84851 z m 7.16506,-7.18555 c 0.62024,-0.68007 1.26789,-1.23649 1.43923,-1.23649 0.17134,0 -0.19594,0.55642 -0.81618,1.23649 -0.62024,0.68007 -1.26789,1.2365 -1.43923,1.2365 -0.17134,0 0.19594,-0.55643 0.81618,-1.2365 z M 171.4623,402.59182 c 0,-3.23034 0.10501,-4.55185 0.23336,-2.93667 0.12834,1.61517 0.12834,4.25817 0,5.87334 -0.12835,1.61518 -0.23336,0.29367 -0.23336,-2.93667 z M 87.904859,369.98341 c 2.655747,-0.11589 7.001515,-0.11589 9.657263,0 2.655748,0.11589 0.482863,0.21071 -4.828632,0.21071 -5.311494,0 -7.484378,-0.0948 -4.828631,-0.21071 z m 55.440711,0.006 9.17932,-0.19759 0.1828,-15.44 0.1828,-15.44001 -0.0164,15.61103 -0.0164,15.61104 -9.34574,0.0265 -9.34574,0.0266 z m 182.45751,-9.18076 c 0.0299,-0.72022 0.17753,-0.86672 0.37642,-0.37353 0.17999,0.4463 0.15785,0.97954 -0.0492,1.18498 -0.20704,0.20544 -0.35429,-0.15972 -0.32724,-0.81145 z M 7.4249382,360.19036 c 0.029896,-0.72022 0.1775318,-0.86672 0.3764255,-0.37352 0.1799806,0.44629 0.157846,0.97953 -0.049188,1.18497 -0.207034,0.20544 -0.3542909,-0.15971 -0.3272375,-0.81145 z m 0,-20.40216 c 0.029896,-0.72022 0.1775318,-0.86672 0.3764255,-0.37352 0.1799806,0.44629 0.157846,0.97953 -0.049188,1.18497 -0.207034,0.20544 -0.3542909,-0.15971 -0.3272375,-0.81145 z M 106.5977,338.60323 c 0.007,-1.36015 0.1345,-1.84377 0.28353,-1.07473 0.14903,0.76905 0.14337,1.88189 -0.0126,2.47299 -0.15595,0.5911 -0.27788,-0.0381 -0.27096,-1.39826 z m 59.6556,-23.38274 c 0,-0.92992 -2.0791,-1.03823 -22.89706,-1.19283 l -22.89706,-0.17003 22.91661,-0.14671 c 20.16981,-0.12912 22.96084,-0.0324 23.28556,0.80733 0.20291,0.52472 0.19411,1.12751 -0.0196,1.33953 -0.21367,0.21203 -0.38849,-0.0747 -0.38849,-0.63729 z m -85.161232,-1.50101 c 6.447607,-0.10057 16.821376,-0.10041 23.052822,3.5e-4 6.23144,0.10075 0.95613,0.18303 -11.722924,0.18284 -12.679051,-1.9e-4 -17.777506,-0.0826 -11.329898,-0.18319 z m 34.257902,-7.57423 c 0,-1.8702 0.1168,-2.63528 0.25955,-1.70018 0.14276,0.93509 0.14276,2.46526 0,3.40036 -0.14275,0.93509 -0.25955,0.17001 -0.25955,-1.70018 z m 27.96736,-7.87895 22.85815,-0.17388 0.25276,-1.69261 c 0.23632,-1.58254 0.24898,-1.57199 0.19467,0.16214 l -0.0581,1.85474 -23.05282,0.0118 -23.05282,0.0117 z m 23.12903,-7.88682 c 0.004,-2.04022 0.11981,-2.80031 0.25848,-1.68911 0.13867,1.11121 0.1358,2.78048 -0.006,3.70949 -0.14216,0.92901 -0.25562,0.0198 -0.25212,-2.02038 z m -87.222466,-8.1912 c 7.133497,-0.0993 18.628754,-0.0991 25.545016,2.9e-4 6.91626,0.0994 1.07977,0.18064 -12.969993,0.18048 -14.04976,-1.6e-4 -19.70852,-0.0815 -12.575023,-0.18077 z m 52.336136,0 c 7.13349,-0.0993 18.62875,-0.0991 25.54501,2.9e-4 6.91627,0.0994 1.07977,0.18064 -12.96999,0.18048 -14.04976,-1.6e-4 -19.70852,-0.0815 -12.57502,-0.18077 z m 147.74738,-44.20526 -2.46288,-2.62755 2.64796,2.4439 c 1.45638,1.34415 2.64796,2.52654 2.64796,2.62755 0,0.46776 -0.54259,-3e-4 -2.83304,-2.4439 z m -225.514495,0.15457 c -147.559757,-172.062892 -147.559757,-172.062892 0,0 z M 156.7518,191.97829 c 0.42834,-0.1715 1.12927,-0.1715 1.55762,0 0.42834,0.17151 0.0779,0.31184 -0.77881,0.31184 -0.8567,0 -1.20716,-0.14033 -0.77881,-0.31184 z m 18.69147,0 c 0.42835,-0.1715 1.12928,-0.1715 1.55762,0 0.42835,0.17151 0.0779,0.31184 -0.77881,0.31184 -0.85669,0 -1.20715,-0.14033 -0.77881,-0.31184 z"
             id="path262153"
             sodipodi:nodetypes="sssssssssssssssssssssscccccccccsssssssssssssssssssscsssssssssssssccsscccccscccssssssssscsssaassssssss" />
          <path
             style="fill:url(#linearGradient262165);fill-opacity:1"
             d="m 279.0252,462.25268 c 1.16248,-1.19012 2.25378,-2.16386 2.42512,-2.16386 0.17133,0 -0.63959,0.97374 -1.80207,2.16386 -1.16247,1.19013 -2.25378,2.16387 -2.42512,2.16387 -0.17133,0 0.6396,-0.97374 1.80207,-2.16387 z M 79.846943,426.24036 c 7.133497,-0.0993 18.628755,-0.0991 25.545017,2.9e-4 6.91626,0.0994 1.07977,0.18064 -12.969994,0.18048 -14.04976,-1.6e-4 -19.70852,-0.0815 -12.575023,-0.18077 z m 51.713087,0 c 7.13349,-0.0993 18.62875,-0.0991 25.54501,2.9e-4 6.91627,0.0994 1.07977,0.18064 -12.96999,0.18048 -14.04976,-1.6e-4 -19.70852,-0.0815 -12.57502,-0.18077 z M 81.092068,421.2945 c 6.447607,-0.10056 16.821376,-0.10041 23.052822,3.5e-4 6.23144,0.10076 0.95613,0.18304 -11.722924,0.18285 -12.679051,-2e-4 -17.777506,-0.0826 -11.329898,-0.1832 z m 62.264172,0.003 22.89706,-0.17393 v -5.23986 -5.23987 l -22.89706,-0.17392 -22.89706,-0.17393 23.05282,0.0118 23.05282,0.0117 v 5.56423 5.56422 l -23.05282,0.0117 -23.05282,0.0118 z m 28.05965,-10.35977 c 0.005,-1.70018 0.12568,-2.32233 0.26889,-1.38256 0.14321,0.93978 0.13938,2.33083 -0.009,3.09124 -0.14788,0.7604 -0.26506,-0.008 -0.26038,-1.70868 z m -90.323822,-0.77211 c 6.447607,-0.10056 16.821376,-0.10041 23.052822,3.5e-4 6.23144,0.10076 0.95613,0.18304 -11.722924,0.18285 -12.679051,-2e-4 -17.777506,-0.0826 -11.329898,-0.1832 z m 34.249392,-7.88335 c 0.005,-1.70018 0.12568,-2.32233 0.26889,-1.38256 0.14321,0.93978 0.13938,2.33083 -0.008,3.09124 -0.14789,0.7604 -0.26507,-0.008 -0.26039,-1.70868 z m 56.19096,-47.60504 c 6e-5,-23.46249 0.0776,-32.97087 0.17234,-21.12973 0.0947,11.84113 0.0947,31.03771 -1.1e-4,42.65906 -0.0948,11.62135 -0.17229,1.93315 -0.17223,-21.52933 z m -4.98561,0.61824 c 7e-5,-21.7623 0.0782,-30.57536 0.17352,-19.58457 0.0954,10.9908 0.0953,28.79632 -1.3e-4,39.56783 -0.0954,10.77151 -0.17346,1.77905 -0.17339,-19.98326 z m -59.83413,1.54562 c 0,-9.01095 0.0871,-12.69725 0.19356,-8.19177 0.10645,4.50547 0.10645,11.87807 0,16.38355 -0.10646,4.50548 -0.19356,0.81918 -0.19356,-8.19178 z m -5.11235,-2.3019 -0.14415,-15.59421 -9.189976,-0.18895 -9.189976,-0.18894 9.20953,-0.13671 c 6.968853,-0.10344 9.283342,0.0542 9.512902,0.64778 0.16686,0.43147 0.22293,7.59541 0.1246,15.91987 l -0.17877,15.13538 z m 224.20275,4.41425 c 0.0299,-0.72023 0.17753,-0.86672 0.37642,-0.37353 0.17999,0.4463 0.15785,0.97954 -0.0492,1.18498 -0.20704,0.20543 -0.35429,-0.15972 -0.32724,-0.81145 z M 7.4741263,358.07802 c 0,-0.85009 0.1414157,-1.19786 0.3142572,-0.77281 0.1728415,0.42504 0.1728415,1.12057 0,1.54562 -0.1728415,0.42504 -0.3142572,0.0773 -0.3142572,-0.77281 z M 115.43827,331.80251 c 2.9e-4,-9.86105 0.0863,-13.80854 0.19116,-8.77221 0.10485,5.03634 0.10461,13.10446 -5.4e-4,17.92918 -0.10514,4.82471 -0.19092,0.70407 -0.19062,-9.15697 z M 7.4741263,342.00359 c 0,-0.85009 0.1414157,-1.19786 0.3142572,-0.77281 0.1728415,0.42504 0.1728415,1.12057 0,1.54562 -0.1728415,0.42504 -0.3142572,0.0773 -0.3142572,-0.77281 z m 131.5492437,-3.5513 c 2.67141,-0.11617 6.87699,-0.11546 9.34574,0.002 2.46874,0.11704 0.28305,0.21208 -4.85711,0.21122 -5.14016,-8.7e-4 -7.16004,-0.0966 -4.48863,-0.2128 z m -52.642992,-4.94742 c 3.530669,-0.1104 9.138111,-0.10995 12.460984,0.001 3.322878,0.11094 0.434145,0.20127 -6.419396,0.20072 -6.853541,-5.4e-4 -9.572256,-0.0913 -6.041588,-0.20172 z m 51.090032,0 c 3.53067,-0.1104 9.13811,-0.10995 12.46099,0.001 3.32287,0.11094 0.43414,0.20127 -6.4194,0.20072 -6.85354,-5.4e-4 -9.57226,-0.0913 -6.04159,-0.20172 z m 33.94548,-46.21617 c 0.005,-1.70018 0,0 0,0 z m -39.23379,-0.15386 c 6.44761,-0.10056 16.82138,-0.1004 23.05282,3.5e-4 6.23145,0.10076 0.95613,0.18304 -11.72292,0.18285 -12.67905,-1.9e-4 -17.77751,-0.0826 -11.3299,-0.1832 z m 27.37342,-95.17327 c 0.59968,-0.1555 1.58098,-0.1555 2.18067,0 0.59968,0.15551 0.10903,0.28274 -1.09034,0.28274 -1.19937,0 -1.69002,-0.12723 -1.09033,-0.28274 z m 12.46098,0 c 0.59969,-0.1555 1.58099,-0.1555 2.18067,0 0.59969,0.15551 0.10904,0.28274 -1.09033,0.28274 -1.19937,0 -1.69002,-0.12723 -1.09034,-0.28274 z"
             id="path262152"
             sodipodi:nodetypes="sssssssssssssssssccccccccccccccscccsssscscccssssscssssssccccsssccsssssssssssssssssccsccssssssssccssssssssssss" />
          <path
             style="fill:url(#linearGradient262166);fill-opacity:1"
             d="m 157.99789,507.90265 c 0.42835,-0.17151 1.12928,-0.17151 1.55763,0 0.42834,0.17151 0.0779,0.31184 -0.77881,0.31184 -0.8567,0 -1.20716,-0.14033 -0.77882,-0.31184 z m 16.19928,0 c 0.42835,-0.17151 1.12928,-0.17151 1.55763,0 0.42834,0.17151 0.0779,0.31184 -0.77882,0.31184 -0.85669,0 -1.20715,-0.14033 -0.77881,-0.31184 z m -2.76642,-86.45429 c 0.004,-2.04021 0.11982,-2.80031 0.25848,-1.68911 0.13867,1.11121 0.13581,2.78048 -0.006,3.70949 -0.14216,0.92901 -0.25561,0.0198 -0.25212,-2.02038 z m -56.04633,-5.56422 c -0.002,-3.06033 0.10345,-4.39023 0.23412,-2.95533 0.13067,1.43489 0.13222,3.93879 0.003,5.56422 -0.12877,1.62543 -0.23568,0.45143 -0.23758,-2.60889 z m 55.97473,-0.61825 c 0.0127,-1.02011 0.15234,-1.36258 0.31031,-0.76104 0.15797,0.60153 0.14758,1.43616 -0.0231,1.85474 -0.17067,0.41857 -0.29992,-0.0736 -0.28722,-1.0937 z M 81.092068,405.22007 c 6.447607,-0.10056 16.821376,-0.1004 23.052822,3.5e-4 6.23144,0.10076 0.95613,0.18304 -11.722924,0.18285 -12.679051,-1.9e-4 -17.777506,-0.0826 -11.329898,-0.1832 z m 51.090032,0 c 6.44761,-0.10056 16.82138,-0.1004 23.05282,3.5e-4 6.23145,0.10076 0.95613,0.18304 -11.72292,0.18285 -12.67905,-1.9e-4 -17.77751,-0.0826 -11.3299,-0.1832 z m -16.73688,-33.23149 c 2e-4,-12.58133 0.0833,-17.64049 0.18462,-11.24258 0.10135,6.39792 0.10119,16.69173 -3.5e-4,22.87515 -0.10154,6.18342 -0.18446,0.94876 -0.18427,-11.63257 z m -29.064842,2.93886 c 3.530669,-0.1104 9.138111,-0.10995 12.460984,9.9e-4 3.322878,0.11095 0.434145,0.20128 -6.419396,0.20073 -6.853541,-5.5e-4 -9.572256,-0.0913 -6.041588,-0.20172 z m 51.090032,0 c 3.53067,-0.1104 9.13811,-0.10995 12.46099,9.9e-4 3.32287,0.11095 0.43414,0.20128 -6.4194,0.20073 -6.85354,-5.5e-4 -9.57226,-0.0913 -6.04159,-0.20172 z m 20.33675,-20.55891 c 0,-10.3711 0.0853,-14.61382 0.18948,-9.42827 0.10421,5.18555 0.10421,13.67099 0,18.85654 -0.10421,5.18555 -0.18948,0.94283 -0.18948,-9.42827 z m 168.06819,2.16387 c 0.0127,-1.02011 0.15234,-1.36258 0.31031,-0.76104 0.15797,0.60153 0.14758,1.43616 -0.0231,1.85474 -0.17067,0.41857 -0.29991,-0.0736 -0.28722,-1.0937 z M 7.4972127,355.2959 c 0.012698,-1.0201 0.1523347,-1.36257 0.3103047,-0.76104 0.15797,0.60154 0.1475811,1.43617 -0.023086,1.85474 -0.1706675,0.41858 -0.2999157,-0.0736 -0.2872187,-1.0937 z m 0.023086,-10.20108 c 0,-1.19012 0.1282205,-1.67699 0.2849346,-1.08193 0.156714,0.59506 0.156714,1.5688 0,2.16387 -0.1567141,0.59506 -0.2849346,0.10819 -0.2849346,-1.08194 z m 121.4945913,0 c 0,-1.19012 0.12822,-1.67699 0.28494,-1.08193 0.15671,0.59506 0.15671,1.5688 0,2.16387 -0.15672,0.59506 -0.28494,0.10819 -0.28494,-1.08194 z m 0.0336,-5.87335 c 0.005,-1.70018 0.12568,-2.32233 0.26889,-1.38255 0.14321,0.93977 0.13939,2.33083 -0.008,3.09124 -0.14789,0.7604 -0.26506,-0.009 -0.26039,-1.70869 z M 81.092068,308.7735 c 6.447607,-0.10057 16.821376,-0.10041 23.052822,3.5e-4 6.23144,0.10075 0.95613,0.18304 -11.722924,0.18284 -12.679051,-1.9e-4 -17.777506,-0.0826 -11.329898,-0.18319 z m 51.090032,0 c 6.44761,-0.10057 16.82138,-0.10041 23.05282,3.5e-4 6.23145,0.10075 0.95613,0.18304 -11.72292,0.18284 -12.67905,-1.9e-4 -17.77751,-0.0826 -11.3299,-0.18319 z m -28.03721,-5.56388 c -197.911732,-237.134922 -197.911732,-237.134922 0,0 z m 28.03721,-3.5e-4 c 6.44761,-0.10056 16.82138,-0.1004 23.05282,3.5e-4 6.23145,0.10076 0.95613,0.18304 -11.72292,0.18285 -12.67905,-1.9e-4 -17.77751,-0.0826 -11.3299,-0.1832 z M 32.101766,285.28057 c 5.889075,-0.10153 15.7021,-0.1017 21.806722,-3.9e-4 6.104622,0.10131 1.286288,0.18437 -10.707409,0.18458 -11.993697,2.1e-4 -16.988388,-0.0827 -11.099313,-0.18419 z M 180.2719,283.42379 c -4.79748,-0.0855 -7.55474,-0.43934 -8.24009,-0.78634 -1.2307,-0.62312 -77.848541,-0.42702 -127.802699,0.33013 l -22.024789,0.33383 3.546139,-6.66182 C 29.832292,268.97142 37.585389,257.2827 43.072022,250.52526 53.668704,237.47419 70.397391,223.21247 85.894533,214.01775 120.014,193.77408 162.26742,187.15498 201.7671,195.86603 c 45.26542,9.98259 84.4635,39.78063 106.23364,80.75791 l 4.40017,9.63417 -45.55015,2.37862 -42.98742,-2.12098 -3.58276,-7.85515 c -1.25869,-2.75966 -2.16179,-4.72971 -2.84968,-4.94636 -0.61971,-0.19517 -5.51713,1.32214 -11.03689,3.41942 -18.13803,6.89174 -16.35941,6.46349 -26.12211,6.28953 z m 18.52164,2.36026 c 0.33277,-0.32911 15.44802,-6.22344 15.99518,-6.22344 0.22675,0 0.72976,0.83464 1.1178,1.85474 l 1.62909,4.8156 -7.77594,-0.16298 c -3.11075,-0.0652 -11.10892,-0.14271 -10.96613,-0.28392 z"
             id="path262151"
             sodipodi:nodetypes="sssssssscsccccscccsssssssssssssssssssssssssssssssssssssssssssssscscccsssssssssssssssssscsscssssscccsssccssscss" />
          <path
             style="fill:url(#linearGradient262167);fill-opacity:1"
             d="m 160.49009,507.90265 c 0.42835,-0.17151 1.12928,-0.17151 1.55762,0 0.42835,0.17151 0.0779,0.31184 -0.77881,0.31184 -0.85669,0 -1.20716,-0.14033 -0.77881,-0.31184 z m 11.21489,0 c 0.42834,-0.17151 1.12927,-0.17151 1.55762,0 0.42835,0.17151 0.0779,0.31184 -0.77881,0.31184 -0.85669,0 -1.20716,-0.14033 -0.77881,-0.31184 z m 97.03991,-36.68538 c 0.62024,-0.68007 1.26789,-1.2365 1.43923,-1.2365 0.17134,0 -0.19594,0.55643 -0.81618,1.2365 -0.62024,0.68007 -1.26789,1.23649 -1.43923,1.23649 -0.17134,0 0.19594,-0.55642 0.81618,-1.23649 z M 63.993754,470.75358 c -0.774993,-0.98057 -0.752955,-1.00244 0.235236,-0.23342 0.599684,0.46668 1.090336,0.95355 1.090336,1.08193 0,0.50884 -0.511639,0.18134 -1.325572,-0.84851 z M 53.720746,461.17075 C 46.254002,453.55099 41.238959,447.57966 35.936875,439.99578 5.3311389,396.21862 -0.77827144,340.10385 19.618417,290.11118 l 1.816686,-4.29853 21.610214,-0.0623 21.650959,-0.008 v 69.84019 c 0,68.41619 0.02457,69.85323 1.205139,70.48018 0.802767,0.42632 18.348512,0.64 52.551095,0.64 48.89275,0 51.39506,-0.0538 52.37384,-1.12705 0.93714,-1.02754 1.04194,-6.18689 1.18691,-58.43178 l 0.159,-57.30472 17.07646,44.36665 c 9.39205,24.40166 19.46115,50.55253 22.3758,58.11305 3.85083,9.989 5.6174,13.84657 6.46296,14.11287 1.10853,0.34912 48.43576,-17.02447 50.19012,-18.42455 0.42835,-0.34184 0.77881,-1.11054 0.77881,-1.70822 0,-0.59768 -8.15234,-22.33364 -18.11631,-48.30215 -22.45884,-58.53316 -27.36628,-71.42459 -27.36628,-71.88902 0,-0.201 19.98699,-0.36545 44.41553,-0.36545 h 44.41553 l 2.63964,6.64615 c 7.59259,19.11686 10.91567,36.80004 10.89215,57.96069 -0.0468,42.08014 -15.77157,80.29057 -45.27196,110.00838 -4.40976,4.44226 -7.66981,7.58997 -7.24454,6.99491 0.73553,-1.02919 -4.45793,-1.08193 -106.54382,-1.08193 -95.322287,0 -107.230354,0.10365 -106.541418,0.92737 0.426595,0.51005 0.646432,0.92737 0.488526,0.92737 -0.157906,0 -3.354126,-3.12988 -7.102712,-6.95528 z M 69.68067,415.88414 v -5.25511 h 22.741296 22.741294 v 5.25511 5.2551 H 92.421966 69.68067 Z m 51.09003,0 v -5.25511 h 22.7413 22.7413 v 5.25511 5.2551 H 143.512 120.7707 Z m 99.02072,2.99952 c -0.37646,-0.96967 -1.21739,-3.14422 -1.86874,-4.83235 -0.65135,-1.68813 -0.97807,-3.25344 -0.72605,-3.47848 0.55955,-0.49963 42.03148,-16.11241 42.17304,-15.87671 0.44191,0.73578 3.45598,8.9855 3.45502,9.45663 -8.9e-4,0.43785 -33.88348,13.66941 -41.57864,16.23697 -0.42359,0.14133 -1.07817,-0.5364 -1.45463,-1.50606 z m -5.84365,-15.38571 c -0.53118,-1.2615 -0.96437,-2.46831 -0.96264,-2.68181 0.002,-0.28254 29.94709,-11.80737 41.58879,-16.00625 0.92246,-0.3327 2.9812,4.11829 2.21989,4.79941 -0.28045,0.25091 -9.34163,3.80473 -20.13595,7.89737 -10.79433,4.09264 -20.10266,7.63101 -20.68518,7.86304 -0.81028,0.32275 -1.28605,-0.11704 -2.02491,-1.87176 z M 69.68067,402.2827 v -2.78212 h 22.741296 22.741294 v 2.78212 2.78211 H 92.421966 69.68067 Z m 51.09003,0 v -2.78212 h 22.7413 22.7413 v 2.78212 2.78211 H 143.512 120.7707 Z m 84.58246,-20.9481 c -2.99648,-7.8606 -9.45463,-24.73334 -14.35144,-37.49498 l -8.9033,-23.20298 21.05447,-7.96179 c 11.57996,-4.37898 21.23799,-7.77967 21.4623,-7.55709 0.49856,0.49473 28.90594,74.14611 28.68338,74.36696 -0.1552,0.154 -36.0236,13.81869 -40.31658,15.35931 l -2.18068,0.78257 z m 20.37878,-12.03417 c 6.14827,-2.32857 11.45426,-4.6673 11.7911,-5.19717 0.45101,-0.7095 -0.59069,-4.11529 -3.95256,-12.9226 -9.18129,-24.05286 -9.36645,-24.48718 -10.57286,-24.80023 -1.55587,-0.40374 -24.30188,8.28009 -25.01897,9.55158 -0.40618,0.72021 1.29439,5.85069 6.03941,18.2204 3.63263,9.46986 6.86508,17.70479 7.18322,18.29986 0.31815,0.59506 1.20249,1.08193 1.96521,1.08193 0.76273,0 6.41717,-1.9052 12.56545,-4.23377 z m -12.50962,-5.89036 c -0.92289,-2.42257 -3.31712,-8.66817 -5.3205,-13.87909 -2.00339,-5.21093 -3.64252,-9.83458 -3.64252,-10.27477 0,-0.69084 14.24429,-6.52783 15.92456,-6.52553 0.54161,7.5e-4 11.8002,28.41714 11.37017,28.69803 -0.10565,0.069 -3.89596,1.5341 -8.42291,3.25576 l -8.23082,3.13029 z M 69.68067,354.36853 v -40.18607 h 22.741296 22.741294 v 40.18607 40.18608 H 92.421966 69.68067 Z m 35.99822,20.05798 c 1.3801,-0.9592 1.38473,-1.02634 1.38473,-20.04887 0,-16.52699 -0.13129,-19.21673 -0.97908,-20.05798 -0.8231,-0.81676 -2.91398,-0.97153 -13.124989,-0.97153 -7.181002,0 -12.638543,0.26161 -13.351054,0.64 -1.152838,0.61222 -1.205138,1.49629 -1.205138,20.37143 0,18.13962 0.08796,19.78228 1.090336,20.36161 0.633459,0.36611 6.05789,0.63805 12.945401,0.64897 9.743324,0.0154 12.101724,-0.15264 13.239794,-0.94363 z M 83.387752,354.36853 v -15.45618 h 9.034214 9.034214 v 15.45618 15.45618 h -9.034214 -9.034214 z m 37.382948,0 v -40.18607 h 22.7413 22.7413 v 40.18607 40.18608 H 143.512 120.7707 Z m 36.13686,19.78392 c 1.1903,-1.18113 1.2461,-2.06083 1.2461,-19.64635 0,-15.66175 -0.14478,-18.61497 -0.96991,-19.78392 -0.94816,-1.34326 -1.25368,-1.37405 -13.63079,-1.37405 -11.02813,0 -12.77116,0.13211 -13.51599,1.02448 -0.6944,0.83194 -0.81654,4.63718 -0.6499,20.2476 0.17923,16.79109 0.33224,19.32088 1.20942,19.99592 0.72399,0.55716 4.36124,0.77281 13.03459,0.77281 11.19965,0 12.11643,-0.0854 13.27648,-1.23649 z m -22.42977,-19.78392 v -15.45618 h 9.03421 9.03421 v 15.45618 15.45618 h -9.03421 -9.03421 z m 44.70471,-41.39209 -0.9669,-2.44252 4.1434,-1.56646 c 2.27887,-0.86156 11.85363,-4.46606 21.27725,-8.01 l 17.13385,-6.44353 0.84371,2.45394 c 0.46405,1.34966 0.74442,2.53581 0.62305,2.63587 -0.28417,0.23429 -41.49901,15.81521 -41.83459,15.81521 -0.13908,0 -0.68798,-1.09913 -1.21977,-2.44251 z M 69.68067,306.14525 v -2.47299 h 22.741296 22.741294 v 2.47299 2.47298 H 92.421966 69.68067 Z m 51.09003,0 v -2.47299 h 22.7413 22.7413 v 2.47299 2.47298 H 143.512 120.7707 Z m 53.68949,-5.43541 c -1.01608,-2.62112 -1.66616,-4.93748 -1.44463,-5.14746 0.22154,-0.20998 6.09033,-2.50522 13.04176,-5.10054 l 12.63895,-4.71875 h 9.33895 9.33895 l 0.63078,1.64629 c 0.34693,0.90546 0.41009,1.83512 0.14034,2.06591 -0.26974,0.23079 -8.48104,3.42645 -18.24734,7.10146 -9.76629,3.67501 -19.06942,7.18515 -20.67362,7.8003 l -2.91673,1.11846 z M 69.68067,292.85293 v -5.2551 h 22.741296 22.741294 v 5.2551 5.2551 H 92.421966 69.68067 Z m 51.09003,0 v -5.2551 h 22.7413 22.7413 v 5.2551 5.2551 H 143.512 120.7707 Z m 51.09004,-4.955 -0.0994,-5.52234 20.54541,-1.26107 c 8.17448,-0.50175 -3.94666,1.87127 -17.17507,7.64167 l -3.27101,1.29662 z M 21.412143,286.50239 c 0.846837,-7.86752 3.930452,-3.54467 22.126374,-3.54467 9.177656,0 21.148314,-3.2351 21.132656,-0.24742 -0.01156,2.2055 0.0059,2.73598 0.0059,3.13903 0,0.80639 -2.795922,-0.0318 -21.470017,-0.0318 -18.833485,0 -21.888224,1.55183 -21.794908,0.68487 z m 150.223287,-2.30492 c -265.402272,-218.122772 -265.402272,-218.122772 0,0 z"
             id="path262150"
             sodipodi:nodetypes="ssssssssssssssssscsscccssssscsssssssscsssssssccccccccccccccccccccsssssssscsssssccccccccccccccccccsscsssscsssssssssssssssscscccccccccsssssssssccccccccccccccccccssssssssscccccccccscsscssssccccccccccccccccccssscccsssscsccccccccccccccccccccssccsssssssss" />
          <path
             style="fill:url(#linearGradient262168);fill-opacity:1"
             d="m 155.53143,507.67363 c -32.14737,-2.29512 -63.537646,-14.66275 -88.72971,-34.95912 -3.12547,-2.51808 -8.146927,-6.34816 -8.575857,-6.86101 -0.694607,-0.8305 13.019104,-1.967 108.670967,-1.21959 l 108.86802,0.85068 -4.52776,3.6663 c -15.4993,12.55038 -38.03174,26.1855 -58.67912,32.27209 -17.90793,5.27904 -38.70545,7.55863 -57.02654,6.25062 z"
             id="path262149"
             sodipodi:nodetypes="sssscssss" />
        </g>
      </g>
    </g>
  </g>
</svg>
