<?xml version="1.0" encoding="UTF-8" standalone="no"?>
<!-- Created with Inkscape (http://www.inkscape.org/) -->

<svg
   version="1.1"
   id="svg1"
   width="681"
   height="351"
   viewBox="0 0 681 351"
   sodipodi:docname="logo.svg"
   inkscape:version="1.4.2 (f4327f4, 2025-05-13)"
   xmlns:inkscape="http://www.inkscape.org/namespaces/inkscape"
   xmlns:sodipodi="http://sodipodi.sourceforge.net/DTD/sodipodi-0.dtd"
   xmlns:xlink="http://www.w3.org/1999/xlink"
   xmlns="http://www.w3.org/2000/svg"
   xmlns:svg="http://www.w3.org/2000/svg">
  <defs
     id="defs1">
    <linearGradient
       id="linearGradient8"
       inkscape:collect="always">
      <stop
         style="stop-color:#155f5e;stop-opacity:1;"
         offset="0.14355232"
         id="stop8" />
      <stop
         style="stop-color:#37a49b;stop-opacity:0.95046437;"
         offset="1"
         id="stop9" />
    </linearGradient>
    <linearGradient
       inkscape:collect="always"
       xlink:href="#linearGradient8"
       id="linearGradient9"
       x1="23.577508"
       y1="200.54783"
       x2="658.12322"
       y2="200.54783"
       gradientUnits="userSpaceOnUse" />
  </defs>
  <sodipodi:namedview
     id="namedview1"
     pagecolor="#ffffff"
     bordercolor="#000000"
     borderopacity="0.25"
     inkscape:showpageshadow="2"
     inkscape:pageopacity="0.0"
     inkscape:pagecheckerboard="0"
     inkscape:deskcolor="#d1d1d1"
     inkscape:zoom="0.99999999"
     inkscape:cx="-2"
     inkscape:cy="134.5"
     inkscape:window-width="1766"
     inkscape:window-height="771"
     inkscape:window-x="138"
     inkscape:window-y="267"
     inkscape:window-maximized="0"
     inkscape:current-layer="svg1" />
  <ellipse
     style="display:inline;opacity:1;fill:#eac3c4;fill-opacity:1;stroke:#000000;stroke-width:0;stroke-linecap:square;stroke-dasharray:none;stroke-opacity:0.92638;paint-order:fill markers stroke"
     id="path1"
     cx="99.256821"
     cy="305.52005"
     rx="247.48224"
     ry="111.99104"
     transform="matrix(0.794077,-0.60781717,0.63616889,0.77154983,0,0)"
     inkscape:label="oval" />
  <path
     id="rect3"
     style="display:inline;opacity:1;fill:url(#linearGradient9);fill-opacity:1;stroke:#000000;stroke-width:0;stroke-linecap:round;stroke-linejoin:round;stroke-dasharray:none;stroke-opacity:0.92638;paint-order:fill markers stroke"
     transform="matrix(0.99999889,0.00148821,-0.00141944,0.99999899,0,0)"
     d="m 571.13828,98.345438 -466.96745,2.659792 c -5.471326,14.45135 -9.765982,25.4461 -12.837728,33.14805 1.101512,-2.56906 2.365239,-5.48847 3.792269,-8.75175 l -3.868169,8.94326 c 0.02531,-0.0634 0.05042,-0.12762 0.0759,-0.19151 -0.204983,0.47808 -0.403838,0.94362 -0.597627,1.39737 l 0.52173,-1.2039 c -7.216089,18.08426 -7.58888,17.75313 -0.525622,1.21367 L 63.070377,199.51376 C 54.244374,226.32723 21.599065,281.46333 23.67195,302.75023 78.20596,273.0092 262.17431,213.75012 338.85974,199.50763 475.0243,174.21843 593.09668,174.42577 657.21175,176.18617 l 0.91147,-44.48187 c 0,-18.48126 -38.79464,-33.358862 -86.98494,-33.358862 z m -3.43043,128.827502 c -0.0266,0.01 -0.0534,0.0195 -0.08,0.0294 -0.0978,0.13615 -0.19522,0.27367 -0.2963,0.40669 0.0524,0.0496 0.1,0.0865 0.14274,0.11111 l 0.19917,-0.0335 c 0.044,-0.0842 0.0567,-0.25005 0.0344,-0.51372 z m -108.62363,17.56011 -2.4427,0.46457 c 0.82243,-0.0692 1.47233,-0.11207 1.48817,-0.0764 0.20622,0.463 0.39518,0.88924 0.56627,1.28041 l 0.92166,-0.15762 c -0.20069,-0.50021 -0.3882,-1.00243 -0.5334,-1.51093 z m -72.35357,13.77761 -13.28353,2.52954 13.15306,-2.25786 -1e-5,-0.002 c 0.0434,-0.0906 0.0869,-0.17936 0.13048,-0.26973 z"
     inkscape:label="banner" />
  <path
     id="rect1-8"
     style="display:inline;opacity:1;stroke:#000000;stroke-width:0;stroke-linecap:square;stroke-linejoin:round;stroke-opacity:0.92638;paint-order:fill markers stroke"
     transform="matrix(0.98237499,-0.18692077,0.21752619,0.97605448,0,0)"
     d="m -49.429564,276.61996 c 0,0 146.784791,-33.03672 219.644294,-36.12282 76.06516,-3.22189 179.44767,-2.87079 273.77635,7.53265 94.32868,10.40345 177.77422,31.37232 177.77422,31.37232 l -1.38197,5.42689 C 520.21796,259.25099 387.99594,243.32235 278.75588,242.6695 224.13585,242.34308 127.56762,247.86253 73.981349,258.12961 20.395078,268.39669 7.4493448,267.54858 -50.757664,282.68648 Z"
     sodipodi:nodetypes="cssccsscc"
     inkscape:label="line-bottom" />
  <rect
     style="display:inline;opacity:1;fill:#000000;fill-opacity:1;stroke:#000000;stroke-width:0;stroke-linecap:round;stroke-linejoin:round;stroke-dasharray:none;stroke-opacity:0.92638;paint-order:fill markers stroke"
     id="rect2"
     width="5.7139282"
     height="209.66151"
     x="118.9304"
     y="43.118973"
     transform="rotate(22.822735)"
     inkscape:label="line-left" />
  <rect
     style="display:inline;opacity:1;fill:#000000;fill-opacity:1;stroke:#000000;stroke-width:0;stroke-linecap:square;stroke-linejoin:round;stroke-dasharray:none;stroke-opacity:0.92638;paint-order:fill markers stroke"
     id="rect1"
     width="423.00735"
     height="4.9330111"
     x="92.70108"
     y="85.959183"
     inkscape:label="line-top" />
  <path
     style="font-weight:bold;font-size:64px;font-family:Bahnschrift;-inkscape-font-specification:Bahnschrift;display:inline;fill:#eac3c3;stroke:#000000;stroke-width:0;stroke-linecap:round;stroke-linejoin:round;stroke-opacity:0.92638;paint-order:fill markers stroke"
     d="m 20.628258,201.78495 13.682371,73.5716 -12.308584,4.79361 -13.3950474,-75.07297 z m 23.674238,69.1312 -12.410871,-70.3364 13.735881,8.6383 10.215324,57.04808 z m 0.825616,-0.47689 -2.373628,-15.12907 21.983308,-7.83683 3.024284,15.0755 z m -5.517293,-27.317 -2.324945,-16.35904 21.265701,-6.10995 2.730814,15.36859 z m -5.293587,-29.12263 -2.764107,-15.88502 22.263628,-6.02481 2.362324,14.60843 z m 61.584353,35.91949 c -2.929233,4.3746 -4.470962,4.92741 -10.172358,7.83033 -7.592523,3.24652 -12.189679,0.44441 -12.189679,0.44441 -0.338585,-2.67096 -1.817276,-11.24936 -2.129672,-15.63696 8.640031,3.13258 12.284912,-0.1349 12.600847,-0.61311 0.482828,-0.48857 1.87708,-6.03843 1.136965,-7.54295 -0.271973,-1.96104 -2.524139,-4.15005 -2.728906,-4.36433 -1.569513,-1.67001 -5.834744,-3.40549 -8.434575,-4.52218 -3.35953,-1.70792 -4.096203,-2.99507 -5.157725,-4.45803 -1.013589,-1.3969 -1.942386,-2.92608 -2.570683,-4.55716 -1.596511,-4.1446 -3.762249,-11.73913 -3.07605,-19.04541 0.54512,-3.55125 2.757413,-8.88499 7.25836,-10.87118 2.255139,-0.99516 4.253659,-1.94964 6.923337,-2.11497 2.661975,-0.18469 7.969103,0.42602 7.969103,0.42602 l 1.515743,14.96485 c -1.100884,-0.78437 -2.594435,-1.06896 -3.477639,-1.30027 -0.933123,-0.12734 -3.594816,-0.18725 -4.278897,0.0127 -2.518715,0.73609 -2.697767,3.08189 -2.882267,3.59259 -0.265755,2.31797 0.527787,7.58738 1.437316,8.4294 0.412583,0.38196 4.677544,3.12214 5.727287,3.55942 2.060384,0.85828 5.735994,3.38628 6.534033,4.21079 1.247095,1.28846 3.674794,3.45094 4.505362,5.15912 1.370411,2.81846 2.743199,6.14849 2.908592,6.6373 0.1845,0.54528 1.174385,5.63885 1.117207,7.47053 0.366999,2.06336 -0.355783,5.62269 -0.302672,6.04069 0.142143,1.11869 -1.710983,5.42954 -2.233029,6.24843 z m 59.570185,-17.58204 1.35591,-67.32811 12.44641,-2.0096 25.45918,58.41966 -11.22669,3.31236 -16.81112,-37.79043 -0.71198,42.21614 z m 10.18966,-12.4015 -4.42069,-11.72448 18.31785,-5.14503 0.75843,13.0548 z m 33.71009,0.69614 -10.82356,-62.60528 13.74509,-1.80109 20.20678,34.02043 -1.25682,3.82601 -7.47095,-41.23124 11.86554,-2.21551 12.02665,58.90594 -14.73194,3.7298 -17.39341,-27.71242 0.37932,-3.16593 5.45509,34.11222 z m 98.99703,-26.09617 -9.61299,-54.25621 13.76809,-1.52817 7.48883,52.5297 z m 0.96651,-0.68058 -1.52486,-10.09679 22.293,-4.95492 1.54736,10.15392 z m -3.97074,-21.33728 -1.65925,-10.87336 21.99785,-2.87614 1.59181,10.82698 z m -4.11874,-20.3576 -2.10626,-11.96675 23.40917,-3.06353 2.20187,11.12832 z m 39.53074,35.25359 1.28622,-12.76282 11.14442,-0.86013 c 1.93119,-0.32491 3.3429,-1.03777 4.23513,-2.13856 0.90931,-1.12479 1.30754,-2.55024 0.93882,-4.21417 l -0.0604,-0.2725 c -0.28756,-1.70506 -0.99748,-2.75018 -2.22135,-3.49494 -1.20677,-0.76877 -2.77576,-0.99069 -4.70695,-0.66577 l -10.23208,1.22583 -2.28114,-8.50136 10.9727,-2.05386 c 1.74629,-0.29381 3.01764,-0.96192 3.81406,-2.00434 0.81696,-1.04587 0.82102,-3.97253 0.82102,-3.97253 l -0.0582,-0.17704 c 0,0 -0.85838,-2.32008 -1.95532,-2.93831 -1.07986,-0.64223 -2.49293,-0.81645 -4.23922,-0.52264 l -13.24848,2.46174 -3.6424,-11.18125 16.63492,-1.66684 c 4.35545,-0.73279 10.39361,1.61048 13.13281,3.32561 2.75974,1.71167 5.11437,8.36108 5.11437,8.36108 v 0 c 0,0 0.0315,4.89597 -1.22244,6.86041 -1.23686,1.94045 -3.21257,3.38198 -5.92714,4.3246 3.0481,-0.0903 5.54093,0.66277 7.4785,2.25926 1.95466,1.57249 3.18092,3.84856 3.6838,6.82717 l 0.0156,0.0924 c 0.65548,3.88247 -0.0422,7.09492 -2.08641,9.63598 -2.04769,2.52051 -7.12905,7.71942 -11.50504,8.45569 z m -0.11897,0.0566 -9.32291,-51.89799 12.73869,1.34823 7.85874,44.67117 z m 35.16567,-6.96327 4.80718,-50.68469 12.36174,-2.12433 22.45702,45.2026 -12.48897,1.94394 -13.39976,-30.00365 -2.19268,33.67402 z m 8.58139,-9.89816 c 0,0 -4.33281,-6.09254 -2.83808,-8.28701 3.90469,-5.73264 19.84467,-4.38949 19.84467,-4.38949 l -0.87189,10.90489 z m 49.93684,0.44422 c -2.15956,0.14397 -4.49506,0.66705 -6.61644,0.48978 -1.3537,-0.0604 -6.67568,-0.1047 -7.9004,-0.0923 l -1.58915,-11.0889 c 0,0 5.37163,1.11533 7.73192,1.68184 1.3256,0.31817 4.57062,-0.50522 4.98705,-0.8567 0.45095,-0.19174 2.23143,-2.22045 2.01821,-3.93642 l 0.0136,-0.0141 c -0.16185,-1.30249 -0.61252,-2.16003 -1.46224,-2.74723 -0.85229,-0.60788 -3.88498,-2.21544 -5.11681,-2.8178 -1.98857,-0.89348 -4.18887,-2.10597 -6.62555,-3.21253 -1.61969,-0.70146 -2.99618,-1.81103 -4.12947,-3.3287 -1.11261,-1.52024 -1.83847,-3.64487 -2.17757,-6.37388 l -0.004,-0.031 c -0.54718,-4.40364 -0.64378,-7.08013 1.95263,-9.838 2.59384,-2.77855 4.87135,-4.35943 10.16398,-5.01707 2.43957,-0.30313 5.19981,-0.26865 7.82484,0.24492 2.62246,0.49289 3.66549,1.32744 3.66549,1.32744 v 0 l 0.73104,9.98247 v 0 c 0,0 -3.41597,-1.98759 -5.38574,-2.4591 -0.86637,-0.20738 -4.60591,-0.22229 -6.60796,1.11778 -0.94172,0.29564 -1.13257,2.81195 -1.13224,3.1936 l 0.004,0.031 c 0.1866,1.44614 0.7398,2.49028 1.67993,3.12923 2.08434,1.24501 4.19258,2.79766 6.02344,3.38852 1.72014,0.55512 2.8718,1.42926 4.41136,2.16168 1.53957,0.73241 4.46181,2.11179 5.50726,3.59839 1.04545,1.48659 1.72617,3.50136 2.04215,6.04431 l 0.006,1.43896 c 0.53947,4.34161 -1.29383,7.37289 -2.04,8.76535 -0.69721,1.30109 -5.31515,4.94331 -7.97504,5.21847 z m 25.15487,-5.40977 -6.21168,-33.76697 11.8426,-0.99921 5.98974,32.94852 z m -14.17556,-32.85074 -0.94875,-9.18359 26.62905,-2.8624 1.40277,9.82482 z m 45.41356,-12.29602 7.05282,40.27361 -12.10504,1.73901 -7.10773,-41.10499 z m 13.86725,39.53186 6.85027,-40.14158 12.93127,-1.0357 20.53745,37.37288 -10.74282,0.7304 -13.72004,-25.67383 -5.07316,27.46308 z m 7.80186,-7.8771 -0.18411,-9.56082 23.86496,-1.40455 0.57012,9.52902 z m 5.94459,-36.51364 -6.03622,0.43637 2.78498,-8.9454 11.22642,0.36484 z m 31.09912,40.37885 -5.53922,-37.41914 13.78351,-1.09445 15.44037,19.89853 0.35932,0.65632 -3.1133,-20.02534 11.44244,-0.76234 6.08004,34.92271 -13.23359,0.87065 -15.12063,-18.07571 -1.80832,-14.28506 4.49806,33.56494 z m -391.75192,77.83976 c -1.17875,2.5216 -4.47096,4.92741 -10.17236,7.83033 -7.59252,3.24652 -12.18968,0.44441 -12.18968,0.44441 -0.33858,-2.67096 -1.81727,-11.24936 -2.12967,-15.63696 8.64003,3.13258 12.28491,-0.1349 12.60085,-0.61311 0.48283,-0.48857 1.87708,-6.03843 1.13696,-7.54295 -0.27197,-1.96104 -2.52413,-4.15005 -2.7289,-4.36433 -1.56951,-1.67001 -5.83475,-3.40549 -8.43458,-4.52218 -3.35953,-1.70792 -4.0962,-2.99507 -5.15772,-4.45803 -1.01359,-1.3969 -1.94239,-2.92608 -2.57068,-4.55716 -1.59652,-4.1446 -3.6298,-8.73759 -2.9436,-16.04387 0.54512,-3.55125 2.75741,-8.88499 7.25836,-10.87118 2.25513,-0.99516 4.25365,-1.94964 6.92333,-2.11497 2.66198,-0.18469 7.96911,0.42602 7.96911,0.42602 l 1.51574,14.96485 c -1.10089,-0.78437 -2.59444,-1.06896 -3.47764,-1.30027 -0.93312,-0.12734 -3.59482,-0.18725 -4.2789,0.0127 -2.51871,0.73609 -2.69776,3.08189 -2.88226,3.59259 -0.26576,2.31797 0.39533,4.58584 1.30486,5.42786 0.41258,0.38196 4.67755,3.12214 5.72729,3.55942 2.06038,0.85828 5.73599,3.38628 6.53403,4.21079 1.2471,1.28846 3.6748,3.45094 4.50536,5.15912 1.37041,2.81846 2.7432,6.14849 2.9086,6.6373 0.1845,0.54528 1.17438,5.63885 1.1172,7.47053 0.367,2.06336 -0.35578,5.62269 -0.30267,6.04069 0.0521,0.41038 -1.44399,4.56047 -2.23303,6.2484 z m 138.62995,-38.75148 c -1.17875,2.5216 -4.47096,4.92741 -10.17236,7.83033 -7.59252,3.24652 -12.18968,0.44441 -12.18968,0.44441 -0.33858,-2.67096 -1.81727,-11.24936 -2.12967,-15.63696 8.64003,3.13258 12.28491,-0.1349 12.60085,-0.61311 0.48283,-0.48857 2.63181,-5.5291 0.70497,-7.03978 -0.75183,-2.484 -6.23029,-3.62148 -9.34661,-4.95357 -3.35953,-1.70792 -4.36283,-2.45356 -5.42435,-3.91652 -1.01359,-1.3969 -0.79192,-0.44924 -1.42021,-2.08032 -1.59652,-4.1446 -3.6298,-8.73759 -2.9436,-16.04387 0.54512,-3.55125 2.75741,-8.88499 7.25836,-10.87118 2.25513,-0.99516 4.25365,-1.94964 6.92333,-2.11497 2.66198,-0.18469 7.96911,0.42602 7.96911,0.42602 l 1.51574,14.96485 c -1.10089,-0.78437 -2.59444,-1.06896 -3.47764,-1.30027 -0.93312,-0.12734 -3.59482,-0.18725 -4.2789,0.0127 -2.51871,0.73609 -2.69776,3.08189 -2.88226,3.59259 -0.26576,2.31797 0.30335,4.18931 1.21288,5.03133 0.41258,0.38196 3.895,2.23143 4.94474,2.66871 2.06038,0.85828 5.46005,2.19668 6.25809,3.02119 1.2471,1.28846 3.6748,3.45094 4.50536,5.15912 1.37041,2.81846 1.52499,3.17934 1.69039,3.66815 0.1845,0.54528 1.27434,3.63038 1.21716,5.46206 0.367,2.06336 -0.35578,5.62269 -0.30267,6.04069 0.0521,0.41038 -1.44399,4.56047 -2.23303,6.2484 z"
     id="text4"
     transform="matrix(0.94996564,0.07006748,-0.06274122,0.8506372,88.597726,-18.163624)"
     aria-label="IES SAN SEBASTIÃN"
     sodipodi:nodetypes="cccccccccccccccccccccccccccscccccsscscsccscssssscscccccccccccccccccccccccccccccccccccccccccccccccccscsscsccscsscsccscsscccsscscccccccccccccccscccsccccscccccccccscsccscsccsssscccsscccccccccccccccccccccccccccccccccccccccccccccccscccccccsscsccccccssssscsssccccccsscsccccccssssscss"
     inkscape:label="nombre" />
</svg>
